<svg xmlns="http://www.w3.org/2000/svg" version="1.1" xmlns:xlink="http://www.w3.org/1999/xlink" xmlns:svgjs="http://svgjs.dev/svgjs" width="1000" height="1000" viewBox="0 0 1000 1000"><g transform="matrix(1,0,0,1,-0.14221556886212738,-0.14221556886229791)"><svg viewBox="0 0 334 334" data-background-color="#ffffff" preserveAspectRatio="xMidYMid meet" height="1000" width="1000" xmlns="http://www.w3.org/2000/svg" xmlns:xlink="http://www.w3.org/1999/xlink"><g id="tight-bounds" transform="matrix(1,0,0,1,0.04749999999998522,0.04750000000001364)"><svg viewBox="0 0 333.90454557049503 333.90454557049503" height="333.90454557049503" width="333.90454557049503"><g><svg></svg></g><g><svg viewBox="0 0 333.90454557049503 333.90454557049503" height="333.90454557049503" width="333.90454557049503"><g><path d="M0 166.952c0-92.205 74.747-166.952 166.952-166.952 92.205 0 166.952 74.747 166.953 166.952 0 92.205-74.747 166.952-166.953 166.953-92.205 0-166.952-74.747-166.952-166.953zM166.952 324.919c87.243 0 157.967-70.724 157.967-157.967 0-87.243-70.724-157.967-157.967-157.966-87.243 0-157.967 70.724-157.966 157.966 0 87.243 70.724 157.967 157.966 157.967z" data-fill-palette-color="tertiary" fill="#000000" stroke="transparent"></path><ellipse rx="160.27418187383762" ry="160.27418187383762" cx="166.95227278524752" cy="166.95227278524752" fill="#000000" stroke="transparent" stroke-width="0" fill-opacity="1" data-fill-palette-color="tertiary"></ellipse></g><g transform="matrix(1,0,0,1,89.52618066023628,71.17305217166896)"><svg viewBox="0 0 154.85218425002247 191.55844122715712" height="191.55844122715712" width="154.85218425002247"><g><svg viewBox="0 0 154.85218425002247 191.55844122715712" height="191.55844122715712" width="154.85218425002247"><g><svg viewBox="0 0 213.15844122715708 263.68564921213806" height="191.55844122715712" width="154.85218425002247"><g transform="matrix(1,0,0,1,0,126.52798925817345)"><svg viewBox="0 0 213.15844122715708 137.15765995396458" height="137.15765995396458" width="213.15844122715708"><g><svg viewBox="0 0 213.15844122715708 137.15765995396458" height="137.15765995396458" width="213.15844122715708"><g><svg viewBox="0 0 213.15844122715708 137.15765995396458" height="137.15765995396458" width="213.15844122715708"><g transform="matrix(1,0,0,1,0,0)"><svg width="213.15844122715708" viewBox="1.45 -39.3 89.74 57.75" height="137.15765995396458" data-palette-color="#ffffff"><path d="M24.55-31.4L24.55-31.4Q22.3-31.4 19.5-29.5L19.5-29.5Q15.8-26.95 12.9-22.75 10-18.55 8.5-13.3L8.5-13.3Q7.6-10.25 7.6-8L7.6-8Q7.6-2.2 10.8 0.5L10.8 0.5Q12.8 2.15 15.2 2.15L15.2 2.15Q20.2 2.15 25.15-1.6L25.15-1.6Q28.35-4.05 30.7-7.1L30.7-7.1Q35.85-13.9 35.85-21.65L35.85-21.65Q35.85-26.95 33.1-31.05L33.1-31.05Q29.65-36.2 23.3-37.5L23.3-37.5Q21.35-37.95 19.45-37.95 17.55-37.95 15.8-37.7L15.8-37.7Q10.05-36.95 7.6-32.75L7.6-32.75Q6-30.1 6-26.8L6-26.8Q6-24.85 6.55-22.65L6.55-22.65Q6.75-21.8 6.3-21.6 5.85-21.4 5.35-22.35L5.35-22.35Q4.1-24.85 4.1-27.48 4.1-30.1 5.9-32.8L5.9-32.8Q9.15-37.7 15.6-38.8L15.6-38.8Q18.85-39.3 20.9-39.3L20.9-39.3Q27.25-39.3 30.8-37.3L30.8-37.3Q36.45-34.15 37.8-28.6L37.8-28.6Q38.5-25.9 38.5-22.85 38.5-19.8 37.48-16.53 36.45-13.25 34.83-10.28 33.2-7.3 30.7-4.6L30.7-4.6Q23.7 3.15 15.5 3.15L15.5 3.15Q12 3.15 9.55 1.35 7.1-0.45 6-3.2L6-3.2Q4.8-6.25 4.8-9.2 4.8-12.15 5.45-14.7 6.1-17.25 7.38-20 8.65-22.75 10.4-24.95 12.15-27.15 14.15-29L14.15-29Q17.85-32.45 22.5-32.8L22.5-32.8Q22.8-32.85 23.05-32.85L23.05-32.85Q24.8-32.85 26.45-31.9L26.45-31.9Q26.8-31.7 26.83-31.5 26.85-31.3 26.6-31.2 26.35-31.1 25.85-31.25 25.35-31.4 24.55-31.4ZM21.4 15.7L21.4 15.7Q17.55 13.5 14.15 10L14.15 10Q12.7 8.55 11.4 7.3L11.4 7.3Q8.45 4.55 5.55 4.55L5.55 4.55Q4.5 4.55 3.43 5.23 2.35 5.9 2.27 6.73 2.2 7.55 1.85 7.5L1.85 7.5Q1.45 7.5 1.45 6.53 1.45 5.55 2.73 4.3 4 3.05 5.55 3.05L5.55 3.05Q9.85 3.05 14.9 7.1L14.9 7.1Q17.1 8.9 19.53 10.78 21.95 12.65 25.53 14.4 29.1 16.15 33.25 16.95L33.25 16.95Q34.7 17.25 35.9 17.25L35.9 17.25Q38.95 17.25 40.05 15.35L40.05 15.35Q40.55 14.5 40.55 13.33 40.55 12.15 39.45 10.55L39.45 10.55Q37.15 7.15 32.35 6.35L32.35 6.35Q31.55 6.25 31.55 5.75L31.55 5.75Q31.55 5.3 32.2 5.4L32.2 5.4Q38.05 6.35 40.7 9.85L40.7 9.85Q41.95 11.6 41.95 12.93 41.95 14.25 41.35 15.3L41.35 15.3Q39.5 18.45 32.88 18.45 26.25 18.45 21.4 15.7ZM55.65-13.55Q54.75-12.65 53.1-9.47 51.45-6.3 51.12-4.73 50.8-3.15 50.8-2.18 50.8-1.2 51.55-1.2L51.55-1.2Q52.5-1.2 53.9-2.95L53.9-2.95Q55.95-5.5 57.95-9.6L57.95-9.6Q58.15-10.05 58.4-10.1L58.4-10.1Q58.8-10.25 58.8-9.8L58.8-9.8Q58.8-9.55 58.65-9.2L58.65-9.2Q54.05 0.1 50.9 0.1L50.9 0.1Q49.45 0.1 48.55-1.3L48.55-1.3Q48.1-2.05 48.1-3.3 48.1-4.55 48.6-6.35L48.6-6.35Q44.6 0.1 41.7 0.1L41.7 0.1Q40.9 0.1 40.25-0.4L40.25-0.4Q38.75-1.45 38.75-4L38.75-4Q38.75-8.9 43-13.95L43-13.95Q45.4-16.75 48.9-17.6L48.9-17.6Q49.85-17.85 50.7-17.85L50.7-17.85Q53-17.85 54.6-16.25L54.6-16.25Q55.1-15.7 54.9-15.2 54.7-14.7 54.05-14.8L54.05-14.8Q53.5-16.6 51.65-16.6L51.65-16.6Q49.5-16.6 46.35-13.2L46.35-13.2Q44.55-11.2 43-8.5L43-8.5Q41.05-5.25 41.05-3.3 41.05-1.35 42.3-1.35L42.3-1.35Q45.3-1.35 50.15-10.55L50.15-10.55Q51.1-12.4 51.75-13.08 52.4-13.75 53.4-13.75L53.4-13.75Q53.6-13.75 54.42-13.6 55.25-13.45 55.65-13.55L55.65-13.55ZM80.25-17.45L80.25-17.45 80-16.6Q77.8-9.3 76-5.9L76-5.9Q72.75 0.1 68.9 0.1L68.9 0.1Q67.09 0.1 66.45-0.83 65.8-1.75 65.72-2.5 65.65-3.25 65.65-3.8L65.65-3.8Q65.65-5.15 66.09-6.75L66.09-6.75Q62.4 0 59.45 0L59.45 0Q58.35 0 57.45-0.63 56.55-1.25 56.35-2.3L56.35-2.3Q56.2-2.55 56.2-2.9L56.2-2.9Q56.2-5.05 58.05-8.1L58.05-8.1Q57.25-8.1 57.6-8.9L57.6-8.9 58.5-10.65Q60.95-15.45 61.3-16.15L61.3-16.15Q61.8-17.2 63.25-17.2L63.25-17.2 66.3-17.2Q64.5-15.9 62.67-12.18 60.85-8.45 59.87-6.35 58.9-4.25 58.9-3.13 58.9-2 59.27-1.53 59.65-1.05 60.25-1.05 60.85-1.05 61.7-1.88 62.55-2.7 63.25-3.65 63.95-4.6 64.67-5.8 65.4-7 66-8.08 66.59-9.15 67.3-10.58 68-12 68.4-12.8L68.4-12.8Q69.84-15.7 70-16.15L70-16.15Q70.45-17.2 71.9-17.2L71.9-17.2 74.95-17.2Q74.84-17.1 74.4-16.8L74.4-16.8Q73.4-16.15 72.95-15.35L72.95-15.35Q70.7-11.6 69.8-9.3L69.8-9.3Q67.8-4.2 67.8-2.75L67.8-2.75Q67.8-0.95 69.15-0.9L69.15-0.9Q69.25-0.9 69.4-0.9L69.4-0.9Q73-0.9 76.5-9.6L76.5-9.6Q75.8-11.1 75.8-12.35 75.8-13.6 76.09-14.6L76.09-14.6Q76.95-17.5 78.8-18.15L78.8-18.15Q79.15-18.3 79.45-18.3L79.45-18.3Q80.25-18.3 80.25-17.45ZM88.59-19.45Q87.89-18.85 87.04-18.85 86.19-18.85 85.69-19.45 85.19-20.05 85.29-20.9L85.29-20.9Q85.44-21.75 86.14-22.35 86.84-22.95 87.69-22.95 88.54-22.95 89.07-22.35 89.59-21.75 89.44-20.9 89.29-20.05 88.59-19.45ZM83.69-1.1L83.69-1.1Q84.64-1.1 85.69-2.05L85.69-2.05Q87.54-3.9 90.39-9.6L90.39-9.6Q90.74-10.35 91.09-10.05L91.09-10.05Q91.19-9.95 91.19-9.73 91.19-9.5 90.79-8.63 90.39-7.75 90.07-7.05 89.74-6.35 88.82-4.78 87.89-3.2 87.14-2.35L87.14-2.35Q85.09 0 83.27 0 81.44 0 80.64-1.1 79.84-2.2 79.84-3.55 79.84-4.9 80.49-6.5L80.49-6.5 83.69-14.65Q83.79-14.95 83.79-15.45 83.79-15.95 83.19-16.75L83.19-16.75 85.94-16.8Q87.09-16.8 87.29-16.38 87.49-15.95 86.99-15.05L86.99-15.05 82.99-5.7Q82.14-3.85 82.14-2.55L82.14-2.55Q82.14-1.1 83.69-1.1Z" opacity="1" transform="matrix(1,0,0,1,0,0)" fill="#ffffff" class="undefined-text-0" data-fill-palette-color="quaternary" id="text-0"></path></svg></g></svg></g></svg></g></svg></g><g transform="matrix(1,0,0,1,40.713262274387006,0)"><svg viewBox="0 0 131.73191667838307 94.1483575268813" height="94.1483575268813" width="131.73191667838307"><g><svg xmlns="http://www.w3.org/2000/svg" xmlns:xlink="http://www.w3.org/1999/xlink" version="1.1" x="0" y="0" viewBox="4.788261159573201 17.708 90.49573884042682 64.677" enable-background="new 0 0 100 100" xml:space="preserve" height="94.1483575268813" width="131.73191667838307" class="icon-icon-0" data-fill-palette-color="quaternary" id="icon-0"><path d="M93 33.118c0 7.981-6.494 14.475-14.476 14.475-7.981 0-14.475-6.494-14.475-14.475s6.494-14.475 14.475-14.475c0.086 0 0.17 0.011 0.256 0.013V30.21c-2.094 0.741-3.597 2.734-3.597 5.082 0 2.98 2.416 5.396 5.396 5.396 2.98 0 5.396-2.416 5.396-5.396 0-2.348-1.503-4.34-3.597-5.082V19.179C88.492 20.872 93 26.472 93 33.118zM80.579 32.555c-1.512 0-2.737 1.226-2.737 2.737 0 1.512 1.226 2.737 2.737 2.737s2.737-1.226 2.737-2.737C83.317 33.781 82.091 32.555 80.579 32.555zM78.352 50.833c-4.848 0.26-9.455 2.468-12.639 6.058-2.774 3.128-4.174 6.958-3.952 10.797v14.697h33.523V67.588C95.284 58.051 87.629 50.34 78.352 50.833zM46.823 72.76c-3.475 0-6.302 2.827-6.302 6.301v0.082H11.382c-1.164 0-2.191-0.562-2.818-1.542-0.628-0.98-0.708-2.148-0.221-3.205l11.545-25.061c0.269-0.582 0.856-0.959 1.498-0.959h1.146l4.945 19.895c0.494 1.986 2.504 3.196 4.491 2.703l2.39-0.594L21.264 17.708l-2.39 0.594c-1.986 0.494-3.196 2.504-2.703 4.491l5.554 22.342h-0.34c-1.903 0-3.647 1.117-4.442 2.844L5.397 73.039c-0.945 2.05-0.782 4.409 0.435 6.31 1.218 1.901 3.292 3.036 5.549 3.036h29.139 2.071 10.532v-3.324C53.124 75.587 50.297 72.76 46.823 72.76z" fill="#ffffff" data-fill-palette-color="quaternary"></path></svg></g></svg></g><g></g></svg></g></svg></g></svg></g></svg></g><defs></defs></svg><rect width="333.90454557049503" height="333.90454557049503" fill="none" stroke="none" visibility="hidden"></rect></g></svg></g></svg>